<?xml version="1.0" encoding="iso-8859-1"?>
<!-- Uploaded to: SVG Repo, www.svgrepo.com, Generator: SVG Repo Mixer Tools -->
<!DOCTYPE svg PUBLIC "-//W3C//DTD SVG 1.1//EN" "http://www.w3.org/Graphics/SVG/1.1/DTD/svg11.dtd">
<svg fill="#000000" version="1.1" id="Capa_1" xmlns="http://www.w3.org/2000/svg" xmlns:xlink="http://www.w3.org/1999/xlink" 
	 width="800px" height="800px" viewBox="0 0 72.116 72.116"
	 xml:space="preserve">
<g>
	<g>
		<rect x="8.872" y="6.216" width="11.019" height="18.243"/>
		<rect x="22.793" y="6.216" width="11.017" height="11.812"/>
		<rect x="36.713" y="6.216" width="11.021" height="11.812"/>
		<rect x="50.633" y="6.216" width="11.02" height="11.812"/>
		<path d="M71.092,27.518h-2.454V0H2.867v27.516h-1.85v5.121h1.85v3.197H13.51c0.598,3.064,3.295,5.385,6.533,5.385
			c3.239,0,5.936-2.317,6.533-5.385h6.58v0.792h-2.088v2.784h3.577L14.35,53.32v-2.64h-2.779v7.896h2.779v-2.64l18.238,12.503H29.91
			v1.82h-3.713v1.856h20.419V70.26h-3.709v-1.82h-2.681l18.235-12.503v2.64h2.785v-7.896h-2.785v2.64L38.168,39.41h3.58v-2.784
			h-2.092v-0.792h6.641c0.602,3.064,3.298,5.385,6.542,5.385c3.234,0,5.931-2.317,6.533-5.385h9.272v-3.197h2.454v-5.121h-0.007
			V27.518z M20.042,38.664c-2.264,0-4.105-1.844-4.105-4.11c0-2.258,1.842-4.101,4.105-4.101c2.263,0,4.106,1.843,4.106,4.101
			C24.142,36.82,22.303,38.664,20.042,38.664z M36.4,67.684l-17.68-12.119h35.368L36.4,67.684z M54.089,53.708H18.721L36.4,41.589
			L54.089,53.708z M37.798,36.628h-2.782v-0.792h2.782V36.628z M52.834,38.664c-2.268,0-4.11-1.844-4.11-4.11
			c0-2.258,1.843-4.101,4.11-4.101c2.263,0,4.106,1.843,4.106,4.101C56.936,36.82,55.093,38.664,52.834,38.664z M66.078,33.279
			h-6.711c-0.598-3.065-3.294-5.384-6.533-5.384c-3.241,0-5.939,2.319-6.54,5.384H26.573c-0.598-3.065-3.294-5.384-6.533-5.384
			c-3.238,0-5.936,2.319-6.533,5.384h-8.08V2.563h60.65V33.279L66.078,33.279z"/>
	</g>
</g>
</svg>